<svg xmlns="http://www.w3.org/2000/svg" xmlns:xlink="http://www.w3.org/1999/xlink" width="125" height="170" viewBox="0 0 125 170"><defs><style>.a{fill:#d9d9d9;}.b{fill:url(#a);}.c{fill:url(#b);}.d{fill:url(#c);}.e{fill:url(#d);}.f{fill:url(#e);}.g{fill:url(#f);}.h{fill:url(#g);}.i{fill:#a6a6a6;}.j{fill:#787878;}.k{fill:#aeff12;}</style><linearGradient id="a" x1="105.33" y1="26.08" x2="105.33" y2="17.83" gradientTransform="translate(210.67 43.91) rotate(-180)" gradientUnits="userSpaceOnUse"><stop offset="0" stop-color="#a6a6a6"/><stop offset=".27" stop-color="#a8a8a8"/><stop offset=".42" stop-color="#b0b0b0"/><stop offset=".53" stop-color="#bebebe"/><stop offset=".63" stop-color="#d1d1d1"/><stop offset=".72" stop-color="#eaeaea"/><stop offset=".73" stop-color="#ebebeb"/><stop offset="1" stop-color="#a6a6a6"/></linearGradient><linearGradient id="b" x1="105.33" y1="37.93" x2="105.33" y2="29.69" gradientTransform="translate(210.67 67.62) rotate(-180)" xlink:href="#a"/><linearGradient id="c" x1="105.33" y1="14.23" x2="105.33" y2="5.98" gradientTransform="translate(210.67 20.21) rotate(-180)" xlink:href="#a"/><linearGradient id="d" x1="80.39" y1="127.34" x2="80.39" y2="88.62" gradientTransform="translate(160.77 215.96) rotate(-180)" xlink:href="#a"/><linearGradient id="e" x1="89.18" y1="123.3" x2="89.18" y2="92.66" gradientTransform="translate(178.35 215.96) rotate(-180)" gradientUnits="userSpaceOnUse"><stop offset="0" stop-color="#787878"/><stop offset=".3" stop-color="#7a7a7a"/><stop offset=".47" stop-color="#828282"/><stop offset=".6" stop-color="#909090"/><stop offset=".71" stop-color="#a3a3a3"/><stop offset=".73" stop-color="#a6a6a6"/><stop offset="1" stop-color="#787878"/></linearGradient><radialGradient id="f" cx="-66.19" cy="41.92" r="20.55" gradientTransform="matrix(-1 0 0 1 -65.74 0)" gradientUnits="userSpaceOnUse"><stop offset="0" stop-color="#a6a6a6"/><stop offset="1" stop-color="#787878"/></radialGradient><linearGradient id="g" y1="109" x2="76" y2="109" gradientUnits="userSpaceOnUse"><stop offset="0" stop-color="#1a1a1a"/><stop offset="1" stop-color="#050505"/></linearGradient></defs><title>robot</title><path class="a" d="M90.15 113.06a4.5 4.5 0 0 1 0-9c9.23 0 10.85-1.65 10.85-11v-88.56a4.5 4.5 0 0 1 9 0v88.55c0 14.21-5.75 20.01-19.85 20.01z"/><rect class="b" x="88.66" y="17.83" width="33.34" height="8.25" rx="4.12" ry="4.12" transform="translate(210.67 43.91) rotate(180)"/><rect class="c" x="94.84" y="29.69" width="20.98" height="8.25" rx="4.12" ry="4.12" transform="translate(210.67 67.62) rotate(180)"/><rect class="d" x="94.84" y="5.98" width="20.98" height="8.25" rx="4.12" ry="4.12" transform="translate(210.67 20.21) rotate(180)"/><path class="e" d="M84.78 127.34h-8.79v-38.72h8.79z"/><path class="f" d="M93.57 123.3h-8.79v-30.64h8.79z"/><path class="g" d="M0 41.65c18 0 32.54 8 32.54 17.84s-14.54 17.84-32.54 17.84v-35.68z"/><path class="h" d="M67 58h-67v102h67c5 0 9-4.52 9-9.48v-84.23c0-4.95-4.08-8.29-9-8.29z"/><circle class="i" cx="36.02" cy="90.91" r="21.08"/><circle class="j" cx="36.02" cy="90.91" r="16.75"/><circle class="i" cx="36.02" cy="90.91" r="8.87"/><circle class="k" cx="36.02" cy="90.91" r="4.76"/><path class="i" d="M0 130.56h39.23v11.86h-39.23z"/><path class="j" d="M0 135.34h35.47v4.67h-35.47z"/></svg>