<svg xmlns="http://www.w3.org/2000/svg" xmlns:xlink="http://www.w3.org/1999/xlink" width="125" height="170" viewBox="0 0 125 170"><defs><style>.a{fill:#d9d9d9;}.b{fill:url(#a);}.c{fill:url(#b);}.d{fill:url(#c);}.e{fill:url(#d);}.f{fill:url(#e);}.g{fill:url(#f);}.h{fill:url(#h);}.i{fill:#a6a6a6;}.j{fill:#787878;}.k{fill:#aeff12;}</style><linearGradient id="a" x1="20.67" y1="26.47" x2="20.67" y2="18.22" gradientUnits="userSpaceOnUse"><stop offset="0" stop-color="#a6a6a6"/><stop offset=".27" stop-color="#a8a8a8"/><stop offset=".42" stop-color="#b0b0b0"/><stop offset=".53" stop-color="#bebebe"/><stop offset=".63" stop-color="#d1d1d1"/><stop offset=".72" stop-color="#eaeaea"/><stop offset=".73" stop-color="#ebebeb"/><stop offset="1" stop-color="#a6a6a6"/></linearGradient><linearGradient id="b" x1="20.67" y1="38.32" x2="20.67" y2="30.08" xlink:href="#a"/><linearGradient id="c" x1="20.67" y1="14.62" x2="20.67" y2="6.37" xlink:href="#a"/><linearGradient id="d" x1="45.62" y1="127.6" x2="45.62" y2="88.88" xlink:href="#a"/><linearGradient id="e" x1="36.83" y1="123.56" x2="36.83" y2="92.92" gradientUnits="userSpaceOnUse"><stop offset="0" stop-color="#787878"/><stop offset=".3" stop-color="#7a7a7a"/><stop offset=".47" stop-color="#828282"/><stop offset=".6" stop-color="#909090"/><stop offset=".71" stop-color="#a3a3a3"/><stop offset=".73" stop-color="#a6a6a6"/><stop offset="1" stop-color="#787878"/></linearGradient><radialGradient id="f" cx="124.55" cy="41.92" r="20.55" gradientUnits="userSpaceOnUse"><stop offset="0" stop-color="#a6a6a6"/><stop offset="1" stop-color="#787878"/></radialGradient><linearGradient id="h" x1="663" y1="108.36" x2="739" y2="108.36" gradientTransform="matrix(-1 0 0 1 788 0)" gradientUnits="userSpaceOnUse"><stop offset="0" stop-color="#1a1a1a"/><stop offset="1" stop-color="#050505"/></linearGradient></defs><title>robot</title><path class="a" d="M36 113.06c-14.1 0-20-5.79-20-20v-88.56a4.5 4.5 0 0 1 9 0v88.55c0 9.36 1.79 11 11 11a4.5 4.5 0 1 1 0 9.01z"/><rect class="b" x="4" y="18.22" width="33.34" height="8.25" rx="4.12" ry="4.12"/><rect class="c" x="10.18" y="30.08" width="20.98" height="8.25" rx="4.12" ry="4.12"/><rect class="d" x="10.18" y="6.37" width="20.98" height="8.25" rx="4.12" ry="4.12"/><path class="e" d="M41.22 88.88h8.79v38.72h-8.79z"/><path class="f" d="M32.43 92.92h8.79v30.64h-8.79z"/><path class="g" d="M125 41.65c-18 0-32.54 8-32.54 17.84s14.54 17.84 32.54 17.84v-35.68zM125 41.65c-18 0-32.54 8-32.54 17.84s14.54 17.84 32.54 17.84v-35.68z"/><path class="h" d="M58.74 57.36h66.26v102h-66.26c-5 0-9.74-3.88-9.74-8.84v-84.23c0-4.95 4.78-8.93 9.74-8.93z"/><circle class="i" cx="89.68" cy="90.91" r="21.08"/><circle class="j" cx="89.68" cy="90.91" r="16.75"/><circle class="i" cx="89.68" cy="90.91" r="8.87"/><circle class="k" cx="89.68" cy="90.91" r="4.76"/><path class="i" d="M82.35 130.82h42.98v11.86h-42.98z"/><path class="j" d="M86.12 135.6h39.22v4.67h-39.22z"/></svg>