<svg xmlns="http://www.w3.org/2000/svg" xmlns:xlink="http://www.w3.org/1999/xlink" width="125" height="170" viewBox="0 0 125 170"><defs><linearGradient id="a" x1="105.33" x2="105.33" y1="26.08" y2="17.83" gradientTransform="rotate(-180 105.35 21.95)" gradientUnits="userSpaceOnUse"><stop offset="0" stop-color="#a6a6a6"/><stop offset=".27" stop-color="#a8a8a8"/><stop offset=".42" stop-color="#b0b0b0"/><stop offset=".53" stop-color="#bebebe"/><stop offset=".63" stop-color="#d1d1d1"/><stop offset=".72" stop-color="#eaeaea"/><stop offset=".73" stop-color="#ebebeb"/><stop offset="1" stop-color="#a6a6a6"/></linearGradient><linearGradient id="b" x1="105.33" x2="105.33" y1="37.93" y2="29.69" gradientTransform="rotate(-180 105.35 33.8)" xlink:href="#a"/><linearGradient id="c" x1="105.33" x2="105.33" y1="14.23" y2="5.98" gradientTransform="rotate(-180 105.35 10.1)" xlink:href="#a"/><linearGradient id="d" x1="80.39" x2="80.39" y1="127.34" y2="88.62" gradientTransform="rotate(-180 80.4 108)" xlink:href="#a"/><linearGradient id="e" x1="89.18" x2="89.18" y1="123.3" y2="92.66" gradientTransform="rotate(-180 89.2 108)" gradientUnits="userSpaceOnUse"><stop offset="0" stop-color="#787878"/><stop offset=".3" stop-color="#7a7a7a"/><stop offset=".47" stop-color="#828282"/><stop offset=".6" stop-color="#909090"/><stop offset=".71" stop-color="#a3a3a3"/><stop offset=".73" stop-color="#a6a6a6"/><stop offset="1" stop-color="#787878"/></linearGradient><radialGradient id="f" cx="-65.19" cy="41.92" r="20.55" gradientTransform="matrix(-1 0 0 1 -64.73 0)" gradientUnits="userSpaceOnUse"><stop offset="0" stop-color="#a6a6a6"/><stop offset="1" stop-color="#787878"/></radialGradient><linearGradient id="g" x2="76" y1="109" y2="109" gradientUnits="userSpaceOnUse"><stop offset="0" stop-color="#1a1a1a"/><stop offset="1" stop-color="#050505"/></linearGradient></defs><path fill="#d9d9d9" d="M90.1 113.1a4.6 4.6 0 0 1-4.5-4.5 4.5 4.5 0 0 1 4.5-4.5c9.3 0 10.9-1.7 10.9-11V4.5a4.5 4.5 0 0 1 9 0v88.6c0 14.2-5.8 20-19.9 20z"/><rect width="33.3" height="8.25" x="88.7" y="17.8" fill="url(#a)" rx="4.1" ry="4.1" transform="rotate(180 105.35 21.95)"/><rect width="21" height="8.25" x="94.8" y="29.7" fill="url(#b)" rx="4.1" ry="4.1" transform="rotate(180 105.35 33.8)"/><rect width="21" height="8.25" x="94.8" y="6" fill="url(#c)" rx="4.1" ry="4.1" transform="rotate(180 105.35 10.1)"/><path fill="url(#d)" d="M76 88.6h8.8v38.72H76z" transform="rotate(180 80.4 108)"/><path fill="url(#e)" d="M84.8 92.7h8.8v30.64h-8.8z" transform="rotate(180 89.2 108)"/><path fill="url(#f)" d="M0 41.7c18 0 32.5 7.9 32.5 17.8S18 77.3 0 77.3z"/><path fill="url(#g)" d="M67 58H0v102h67c4.9 0 9-4.5 9-9.5V66.3c0-5-4.1-8.3-9-8.3z"/><circle cx="36" cy="90.9" r="21.1" fill="#a6a6a6"/><circle cx="36" cy="90.9" r="16.7" fill="#787878"/><circle cx="36" cy="90.9" r="8.9" fill="#a6a6a6"/><circle cx="36" cy="90.9" r="4.8" fill="#aeff12"/><path fill="#a6a6a6" d="M0 130.1h39.2v11.86H0z"/><path fill="#787878" d="M0 134.7h35.5v4.67H0z"/></svg>