<svg xmlns="http://www.w3.org/2000/svg" xmlns:xlink="http://www.w3.org/1999/xlink" width="320" height="185" viewBox="0 0 320 185"><defs><style>.a{fill:#1a1a1a;}.b{fill:url(#a);}.c{fill:url(#b);}.d{fill:url(#c);}.e{fill:url(#d);}.f{fill:url(#e);}.g{fill:#787878;}.h{fill:#a6a6a6;}.i{fill:#dc5c01;}.j{fill:#eb7e2e;}.k{fill:url(#f);}.l{fill:url(#g);}.m{fill:url(#h);}.n{fill:#d9d9d9;}.o{fill:url(#i);}.p{fill:url(#j);}.q{fill:url(#k);}.r{fill:url(#l);}.s{fill:url(#m);}.t{fill:url(#n);}.u{fill:url(#o);}.v{fill:url(#p);}.w{fill:url(#q);}</style><linearGradient id="a" x1="34.67" y1="208.18" x2="34.67" y2="155.18" gradientUnits="userSpaceOnUse"><stop offset="0" stop-color="#db5b00"/><stop offset=".7" stop-color="#ed8134"/><stop offset="1" stop-color="#db5b00"/></linearGradient><linearGradient id="b" x1="65" y1="214.44" x2="65" y2="147.78" xlink:href="#a"/><linearGradient id="c" x1="284.67" y1="208.18" x2="284.67" y2="155.18" xlink:href="#a"/><linearGradient id="d" x1="256.03" y1="214.44" x2="256.03" y2="147.78" gradientTransform="translate(512.07 362.22) rotate(-180)" xlink:href="#a"/><linearGradient id="e" x1="160.67" y1="233.73" x2="160.67" y2="131.55" gradientUnits="userSpaceOnUse"><stop offset="0" stop-color="#1a1a1a"/><stop offset="1" stop-color="#050505"/></linearGradient><radialGradient id="f" cx="183.28" cy="152.24" r="4.62" xlink:href="#e"/><radialGradient id="g" cx="225.86" cy="152.24" r="4.62" xlink:href="#e"/><linearGradient id="h" x1="159.67" y1="116.18" x2="159.67" y2="26.18" xlink:href="#e"/><linearGradient id="i" x1="128.5" y1="103.54" x2="128.5" y2="94.04" gradientUnits="userSpaceOnUse"><stop offset="0" stop-color="#822303"/><stop offset="1" stop-color="#fc3f00"/></linearGradient><linearGradient id="j" x1="191.5" y1="103.54" x2="191.5" y2="94.04" xlink:href="#i"/><linearGradient id="k" x1="176" y1="103.54" x2="176" y2="94.04" xlink:href="#i"/><linearGradient id="l" x1="160" y1="103.54" x2="160" y2="94.04" xlink:href="#i"/><linearGradient id="m" x1="144" y1="103.54" x2="144" y2="94.04" xlink:href="#i"/><linearGradient id="n" x1="196.02" y1="62.07" x2="196.02" y2="44.34" xlink:href="#i"/><linearGradient id="o" x1="123.98" y1="62.07" x2="123.98" y2="44.34" xlink:href="#i"/><linearGradient id="p" x1="227.62" y1="86.02" x2="227.62" y2="55.38" gradientTransform="translate(455.24 141.4) rotate(-180)" xlink:href="#i"/><linearGradient id="q" x1="93.05" y1="86.02" x2="93.05" y2="55.38" gradientTransform="translate(186.1 141.4) rotate(-180)" xlink:href="#i"/></defs><title>robot</title><path class="a" d="M102.43 116.99h116.47v18.76h-116.47z"/><path class="b" d="M19.77 155.18h37.9v53h-46v-46.2l8.1-6.8z"/><path class="c" d="M57.44 147.78h15.13v66.65h-15.13z"/><path class="d" d="M301.12 155.18h-39.45v53h46v-46.2l-6.55-6.8z"/><path class="e" d="M263.6 214.44h-15.13v-66.65h15.13z"/><rect class="f" x="71.92" y="131.55" width="177.49" height="102.18" rx="17.03" ry="17.03"/><rect class="g" x="170.47" y="142.09" width="68.72" height="63.95" rx="7" ry="7"/><rect class="h" x="173.67" y="146.18" width="61" height="57" rx="5.21" ry="5.21" transform="translate(408.33 349.36) rotate(180)"/><rect class="i" x="118.81" y="142.09" width="25.62" height="24.41" rx="8.5" ry="8.5"/><rect class="j" x="82.65" y="142.09" width="25.62" height="24.41" rx="8.5" ry="8.5"/><circle class="k" cx="183.28" cy="154.09" r="4.62"/><circle class="l" cx="225.86" cy="154.09" r="4.62"/><path class="a" d="M227.3 20.18h-133.93c-5 0-9.7 3.45-9.7 8.4v84.23c0 5 4.74 9.37 9.7 9.37h133.93c5 0 8.37-4.41 8.37-9.37v-84.23a8 8 0 0 0-8.37-8.4z"/><path class="m" d="M93.37 116.18c-1.73 0-3.7-1.84-3.7-3.36v-84.24c0-1.49 1.91-2.4 3.7-2.4h133.93c1.61 0 2.37.73 2.37 2.4v84.23c0 1.48-.59 3.36-2.37 3.36h-133.93z"/><path class="n" d="M157.67 44.18h4v55h-4zM127.67 97.18h63v4h-63zM118.67 51.18h81v4h-81zM83.67 69.18h152v4h-152z"/><circle class="o" cx="128.5" cy="98.79" r="4.75"/><circle class="p" cx="191.5" cy="98.79" r="4.75"/><circle class="q" cx="176" cy="98.79" r="4.75"/><circle class="r" cx="160" cy="98.79" r="4.75"/><circle class="s" cx="144" cy="98.79" r="4.75"/><path class="h" d="M127.67 37.79a6.21 6.21 0 0 1 6.15 6.39h52.36a6.58 6.58 0 0 1 6.49-6.49v-15.9c-1-10-14.59-17.79-32.56-17.79s-32.44 7.79-32.44 17.79v16z"/><path class="g" d="M136.19 41a8.37 8.37 0 0 0-5.52-5.74v-13.47c0-8 13.48-14.79 29.44-14.79 15.65 0 28.56 6.56 29.56 14.95v13.18a9.77 9.77 0 0 0-6.06 5.87l.14 3.19h-47.42z"/><circle class="t" cx="196.02" cy="53.2" r="8.87"/><circle class="u" cx="123.98" cy="53.2" r="8.87"/><path class="v" d="M236.34 86.02h-17.43v-30.64h17.43z"/><path class="w" d="M101.77 86.02h-17.43v-30.64h17.43z"/></svg>