<svg xmlns="http://www.w3.org/2000/svg" xmlns:xlink="http://www.w3.org/1999/xlink" width="320" height="185" viewBox="0 0 320 185"><defs><linearGradient id="a" x1="34.67" x2="34.67" y1="208.18" y2="155.18" gradientUnits="userSpaceOnUse"><stop offset="0" stop-color="#db5b00"/><stop offset=".7" stop-color="#ed8134"/><stop offset="1" stop-color="#db5b00"/></linearGradient><linearGradient id="d" x1="65" x2="65" y1="214.44" y2="147.78" xlink:href="#a"/><linearGradient id="e" x1="284.67" x2="284.67" y1="208.18" y2="155.18" xlink:href="#a"/><linearGradient id="f" x1="256.03" x2="256.03" y1="214.44" y2="147.78" gradientTransform="rotate(-180 256.05 181.1)" xlink:href="#a"/><linearGradient id="b" x1="160.67" x2="160.67" y1="233.73" y2="131.55" gradientUnits="userSpaceOnUse"><stop offset="0" stop-color="#1a1a1a"/><stop offset="1" stop-color="#050505"/></linearGradient><radialGradient id="g" cx="183.28" cy="152.24" r="4.62" xlink:href="#b"/><radialGradient id="h" cx="225.86" cy="152.24" r="4.62" xlink:href="#b"/><linearGradient id="i" x1="159.67" x2="159.67" y1="116.18" y2="26.18" xlink:href="#b"/><linearGradient id="c" x1="128.5" x2="128.5" y1="103.54" y2="94.04" gradientUnits="userSpaceOnUse"><stop offset="0" stop-color="#822303"/><stop offset="1" stop-color="#fc3f00"/></linearGradient><linearGradient id="j" x1="191.5" x2="191.5" y1="103.54" y2="94.04" xlink:href="#c"/><linearGradient id="k" x1="176" x2="176" y1="103.54" y2="94.04" xlink:href="#c"/><linearGradient id="l" x1="160" x2="160" y1="103.54" y2="94.04" xlink:href="#c"/><linearGradient id="m" x1="144" x2="144" y1="103.54" y2="94.04" xlink:href="#c"/><linearGradient id="n" x1="196.02" x2="196.02" y1="62.07" y2="44.34" xlink:href="#c"/><linearGradient id="o" x1="123.98" x2="123.98" y1="62.07" y2="44.34" xlink:href="#c"/><linearGradient id="p" x1="227.62" x2="227.62" y1="86.02" y2="55.38" gradientTransform="rotate(-180 227.6 70.7)" xlink:href="#c"/><linearGradient id="q" x1="93.05" x2="93.05" y1="86.02" y2="55.38" gradientTransform="rotate(-180 93.05 70.7)" xlink:href="#c"/></defs><path fill="#1a1a1a" d="M102.4 117h116.5v18.76H102.4z"/><path fill="url(#a)" d="M19.8 155.2h37.9v53h-46V162l8.1-6.8z"/><path fill="url(#d)" d="M57.4 147.8h15.1v66.65H57.4z"/><path fill="url(#e)" d="M301.1 155.2h-39.4v53h46V162l-6.6-6.8z"/><path fill="url(#f)" d="M248.5 147.8h15.1v66.65h-15.1z" transform="rotate(180 256.05 181.1)"/><rect width="177.5" height="102.18" x="71.9" y="131.5" fill="url(#b)" rx="17" ry="17"/><rect width="68.7" height="63.95" x="170.5" y="142.1" fill="#787878" rx="7" ry="7"/><rect width="61" height="57" x="173.7" y="146.2" fill="#a6a6a6" rx="5.2" ry="5.2" transform="rotate(180 204.15 174.7)"/><rect width="25.6" height="24.41" x="118.8" y="142.1" fill="#dc5c01" rx="8.5" ry="8.5"/><rect width="25.6" height="24.41" x="82.6" y="142.1" fill="#eb7e2e" rx="8.5" ry="8.5"/><circle cx="183.3" cy="154.1" r="4.6" fill="url(#g)"/><circle cx="225.9" cy="154.1" r="4.6" fill="url(#h)"/><path fill="#1a1a1a" d="M227.3 20.2H93.4c-5 0-9.7 3.4-9.7 8.4v84.2c0 5 4.7 9.4 9.7 9.4h133.9c5 0 8.4-4.4 8.4-9.4V28.6a8 8 0 0 0-8.4-8.4z"/><path fill="url(#i)" d="M93.4 116.2a4.1 4.1 0 0 1-3.7-3.4V28.6c0-1.5 1.9-2.4 3.7-2.4h133.9c1.6 0 2.4.7 2.4 2.4v84.2c0 1.5-.6 3.4-2.4 3.4z"/><path fill="#d9d9d9" d="M157.7 44.2h4v55h-4z"/><path fill="#d9d9d9" d="M127.7 97.2h63v4h-63zm-9-46h81v4h-81zm-35 18h152v4h-152z"/><circle cx="128.5" cy="98.8" r="4.8" fill="url(#c)"/><circle cx="191.5" cy="98.8" r="4.8" fill="url(#j)"/><circle cx="176" cy="98.8" r="4.8" fill="url(#k)"/><circle cx="160" cy="98.8" r="4.8" fill="url(#l)"/><circle cx="144" cy="98.8" r="4.8" fill="url(#m)"/><path fill="#a6a6a6" d="M127.7 37.8a6.2 6.2 0 0 1 6.1 6.4h52.4a6.6 6.6 0 0 1 6.5-6.5V21.8c-1-10-14.6-17.8-32.6-17.8s-32.4 7.8-32.4 17.8z"/><path fill="#787878" d="M136.2 41a8.6 8.6 0 0 0-5.5-5.8V21.8c0-8 13.4-14.8 29.4-14.8s28.6 6.6 29.6 14.9v13.2a9.9 9.9 0 0 0-6.1 5.9l.2 3.2h-47.5z"/><circle cx="196" cy="53.2" r="8.9" fill="url(#n)"/><circle cx="124" cy="53.2" r="8.9" fill="url(#o)"/><path fill="url(#p)" d="M218.9 55.4h17.4v30.64h-17.4z" transform="rotate(180 227.6 70.7)"/><path fill="url(#q)" d="M84.3 55.4h17.4v30.64H84.3z" transform="rotate(180 93.05 70.7)"/></svg>