<svg xmlns="http://www.w3.org/2000/svg" xmlns:xlink="http://www.w3.org/1999/xlink" width="125" height="170" viewBox="0 0 125 170"><defs><linearGradient id="a" x1="162.33" x2="162.33" y1="26.08" y2="17.83" gradientTransform="matrix(-1 0 0 1 182 0)" gradientUnits="userSpaceOnUse"><stop offset="0" stop-color="#a6a6a6"/><stop offset=".27" stop-color="#a8a8a8"/><stop offset=".42" stop-color="#b0b0b0"/><stop offset=".53" stop-color="#bebebe"/><stop offset=".63" stop-color="#d1d1d1"/><stop offset=".72" stop-color="#eaeaea"/><stop offset=".73" stop-color="#ebebeb"/><stop offset="1" stop-color="#a6a6a6"/></linearGradient><linearGradient id="b" x1="162.33" x2="162.33" y1="37.93" y2="29.69" xlink:href="#a"/><linearGradient id="c" x1="162.33" x2="162.33" y1="14.23" y2="5.98" xlink:href="#a"/><linearGradient id="d" x1="137.39" x2="137.39" y1="127.34" y2="88.62" xlink:href="#a"/><linearGradient id="e" x1="146.18" x2="146.18" y1="123.3" y2="92.66" gradientTransform="matrix(-1 0 0 1 182 0)" gradientUnits="userSpaceOnUse"><stop offset="0" stop-color="#787878"/><stop offset=".3" stop-color="#7a7a7a"/><stop offset=".47" stop-color="#828282"/><stop offset=".6" stop-color="#909090"/><stop offset=".71" stop-color="#a3a3a3"/><stop offset=".73" stop-color="#a6a6a6"/><stop offset="1" stop-color="#787878"/></linearGradient><radialGradient id="f" cx="813.81" cy="41.92" r="20.55" gradientTransform="translate(-689.3)" gradientUnits="userSpaceOnUse"><stop offset="0" stop-color="#a6a6a6"/><stop offset="1" stop-color="#787878"/></radialGradient><linearGradient id="g" x1="57" x2="133" y1="109" y2="109" gradientTransform="matrix(-1 0 0 1 182 0)" gradientUnits="userSpaceOnUse"><stop offset="0" stop-color="#1a1a1a"/><stop offset="1" stop-color="#050505"/></linearGradient></defs><path fill="#d9d9d9" d="M34.9 113.1a4.6 4.6 0 0 0 4.5-4.5 4.5 4.5 0 0 0-4.5-4.5c-9.3 0-10.9-1.7-10.9-11V4.5a4.5 4.5 0 0 0-9 0v88.6c0 14.2 5.8 20 19.9 20z"/><rect width="33.3" height="8.25" x="3" y="17.8" fill="url(#a)" rx="4.1" ry="4.1"/><rect width="21" height="8.25" x="9.2" y="29.7" fill="url(#b)" rx="4.1" ry="4.1"/><rect width="21" height="8.25" x="9.2" y="6" fill="url(#c)" rx="4.1" ry="4.1"/><path fill="url(#d)" d="M40.2 88.6H49v38.72h-8.8z"/><path fill="url(#e)" d="M31.4 92.7h8.8v30.64h-8.8z"/><path fill="url(#f)" d="M125 41.7c-18 0-32.5 7.9-32.5 17.8S107 77.3 125 77.3z"/><path fill="url(#g)" d="M58 58h67v102H58c-4.9 0-9-4.5-9-9.5V66.3c0-5 4.1-8.3 9-8.3z"/><circle cx="89" cy="90.9" r="21.1" fill="#a6a6a6"/><circle cx="89" cy="90.9" r="16.7" fill="#787878"/><circle cx="89" cy="90.9" r="8.9" fill="#a6a6a6"/><circle cx="89" cy="90.9" r="4.8" fill="#aeff12"/><path fill="#a6a6a6" d="M125 141.9H85.8v-11.86H125z"/><path fill="#787878" d="M125 139.3H89.5v-4.67H125z"/></svg>